<svg version="1.1" id="Layer_1" xmlns="http://www.w3.org/2000/svg" xmlns:xlink="http://www.w3.org/1999/xlink" x="0px" y="0px"
	 width="100%" viewBox="0 0 512 512" enable-background="new 0 0 512 512" xml:space="preserve">
<path fill="#000000" opacity="1.000000" stroke="none" 
	d="
M140.000000,1.000000 
	C264.261292,1.000000 388.522583,1.000000 513.000000,1.000000 
	C513.000000,125.022560 513.000000,249.045242 512.660767,373.728943 
	C511.267670,372.762848 510.078430,371.206604 509.182617,369.496643 
	C504.706879,360.953094 497.206665,355.438721 488.143127,355.265137 
	C455.758881,354.644897 423.353912,355.107178 390.498108,355.092346 
	C385.379822,354.990601 380.720184,354.956360 376.174927,354.593018 
	C380.207611,351.867218 384.125946,349.470459 388.409424,347.046997 
	C389.217590,346.833374 389.686493,346.691406 390.100006,346.453278 
	C415.909393,331.591827 441.735321,316.758911 467.511200,301.839508 
	C481.715607,293.617828 486.139557,275.795929 479.114349,261.556152 
	C475.159515,253.539856 470.553955,245.834808 466.042236,238.105865 
	C461.884216,230.982880 457.459869,224.015381 453.081604,216.614777 
	C444.616638,201.665726 437.012848,186.546432 427.604523,172.648804 
	C418.384735,159.029556 401.917175,156.071960 388.402863,163.445770 
	C367.073822,175.083572 346.282227,187.708221 325.297638,199.974182 
	C319.747314,203.218475 314.323273,206.678864 308.488831,210.047058 
	C304.779755,211.706390 301.423035,213.358704 298.151917,214.671921 
	C300.097168,210.896713 301.956818,207.460617 303.985535,203.714447 
	C308.602478,195.946182 313.112427,188.524155 317.485992,181.022598 
	C328.151703,162.728836 338.944092,144.504974 349.321045,126.048073 
	C357.371216,111.729782 354.873688,93.930542 340.301788,84.806107 
	C325.847504,75.755318 310.875336,67.531677 295.955383,58.633957 
	C282.674622,50.870567 269.511047,43.517517 256.486847,35.925335 
	C249.805542,32.030594 242.876602,29.502295 235.060623,30.474714 
	C221.650589,32.143112 213.960785,40.684357 207.851944,52.029713 
	C198.998779,68.471825 189.209152,84.407906 179.923035,100.619438 
	C175.126160,108.993721 170.553711,117.496567 165.576996,126.105858 
	C163.228455,129.516479 161.182800,132.762573 159.078140,135.545227 
	C158.957336,131.056885 158.895523,127.031952 158.904388,122.542679 
	C158.983459,91.264709 159.019119,60.451054 158.986404,29.637478 
	C158.973923,17.891716 153.404709,9.509316 143.180328,3.972790 
	C141.945663,3.304218 141.051804,2.006255 140.000000,1.000000 
z"/>
<path fill="#E2DFF4" opacity="1.000000" stroke="none" 
	d="
M159.000000,513.000000 
	C108.979103,513.000000 58.958210,513.000000 8.769051,512.717102 
	C6.067194,510.289459 3.533604,508.144714 1.000006,506.000000 
	C1.000000,481.979095 1.000000,457.958221 1.468657,433.468628 
	C22.915583,432.986725 43.893848,432.973480 64.928986,433.368774 
	C64.250542,442.787781 75.964844,452.322723 86.659134,446.182343 
	C92.040031,443.092682 93.981316,438.438416 95.583229,432.973114 
	C117.019295,432.983002 137.994522,432.981201 158.980804,433.449554 
	C158.994568,460.279785 158.997284,486.639893 159.000000,513.000000 
z"/>
<path fill="#F4F4F6" opacity="1.000000" stroke="none" 
	d="
M64.872116,432.960266 
	C43.893848,432.973480 22.915583,432.986725 1.468657,433.000000 
	C1.000000,407.312439 1.000000,381.624878 1.468657,355.468658 
	C12.633400,354.967957 23.329485,354.935913 34.489697,354.935974 
	C43.634346,354.640503 52.314869,354.312958 61.300972,354.269409 
	C62.410378,354.700806 63.214252,354.976929 64.018021,354.976624 
	C83.716263,354.969330 103.414505,354.932709 123.573776,354.924744 
	C135.676331,354.973785 147.317825,354.999359 158.972351,355.491882 
	C159.018768,381.663605 159.052155,407.368347 159.037750,433.072998 
	C158.989929,433.072906 158.969742,432.979431 158.969742,432.979431 
	C137.994522,432.981201 117.019295,432.983002 95.532379,433.047302 
	C95.020676,433.109863 94.847229,433.062042 94.896835,432.674805 
	C94.612541,430.864807 94.389008,429.404938 93.925568,428.025665 
	C91.951950,422.151917 83.671974,417.006775 78.000374,418.063477 
	C69.478600,419.651215 64.894035,424.999817 65.057999,433.086731 
	C64.971016,433.112122 64.872116,432.960266 64.872116,432.960266 
z"/>
<path fill="#5E54AC" opacity="1.000000" stroke="none" 
	d="
M391.000000,513.000000 
	C351.312439,513.000000 311.624878,513.000000 271.468658,512.531372 
	C271.039764,485.750336 271.079498,459.437958 271.574829,433.081543 
	C311.646149,432.984283 351.261932,432.931030 390.938110,432.939026 
	C390.998566,433.000244 391.118683,433.123474 391.080505,433.582886 
	C391.028229,460.361542 391.014099,486.680756 391.000000,513.000000 
z"/>
<path fill="#38336B" opacity="1.000000" stroke="none" 
	d="
M391.468658,513.000000 
	C391.014099,486.680756 391.028229,460.361542 391.536804,433.539429 
	C432.354187,433.024353 472.677094,433.012177 513.000000,433.000000 
	C513.000000,453.020905 513.000000,473.041779 512.643127,493.497070 
	C508.149292,500.087250 504.877899,507.007355 497.316315,510.050537 
	C496.024414,510.570435 495.096222,511.993927 494.000000,513.000000 
	C459.979095,513.000000 425.958221,513.000000 391.468658,513.000000 
z"/>
<path fill="#FF6326" opacity="1.000000" stroke="none" 
	d="
M139.531342,1.000000 
	C141.051804,2.006255 141.945663,3.304218 143.180328,3.972790 
	C153.404709,9.509316 158.973923,17.891716 158.986404,29.637478 
	C159.019119,60.451054 158.983459,91.264709 158.446579,122.540657 
	C131.605850,123.002083 105.293587,123.001175 78.992401,122.998589 
	C79.003464,122.996910 78.999504,123.018944 78.999725,122.548508 
	C78.999962,81.718719 78.999977,41.359360 79.000000,1.000000 
	C99.020897,1.000000 119.041786,1.000000 139.531342,1.000000 
z"/>
<path fill="#FFD321" opacity="1.000000" stroke="none" 
	d="
M1.000000,243.000000 
	C1.000000,203.312439 1.000000,163.624878 1.468657,123.468658 
	C27.624712,123.006317 53.312107,123.012634 78.999504,123.018944 
	C78.999504,123.018944 79.003464,122.996910 78.999283,123.467316 
	C78.998558,163.627182 79.002007,203.316620 78.536453,243.004089 
	C52.378307,243.001404 26.689154,243.000702 1.000000,243.000000 
z"/>
<path fill="#FF8E00" opacity="1.000000" stroke="none" 
	d="
M78.999725,122.548508 
	C53.312107,123.012634 27.624712,123.006317 1.468657,123.000000 
	C1.000000,88.979103 1.000000,54.958210 1.290437,20.770748 
	C2.030750,20.155146 2.684407,19.787064 2.899795,19.244877 
	C5.910236,11.666862 11.161904,6.322161 18.622112,3.050170 
	C19.258684,2.770973 19.548889,1.702054 20.000000,1.000000 
	C39.354229,1.000000 58.708454,1.000000 78.531342,1.000000 
	C78.999977,41.359360 78.999962,81.718719 78.999725,122.548508 
z"/>
<path fill="#5E54AC" opacity="1.000000" stroke="none" 
	d="
M513.000000,432.531311 
	C472.677094,433.012177 432.354187,433.024353 391.574982,433.080017 
	C391.118683,433.123474 390.998566,433.000244 390.981842,432.484375 
	C390.962341,406.365662 390.959564,380.762756 390.956787,355.159882 
	C423.353912,355.107178 455.758881,354.644897 488.143127,355.265137 
	C497.206665,355.438721 504.706879,360.953094 509.182617,369.496643 
	C510.078430,371.206604 511.267670,372.762848 512.660767,374.195007 
	C513.000000,393.354218 513.000000,412.708466 513.000000,432.531311 
z"/>
<path fill="#7873D5" opacity="1.000000" stroke="none" 
	d="
M271.119232,433.125610 
	C271.079498,459.437958 271.039764,485.750336 271.000000,512.531372 
	C233.979111,513.000000 196.958206,513.000000 159.468658,513.000000 
	C158.997284,486.639893 158.994568,460.279785 158.980804,433.449554 
	C158.969742,432.979431 158.989929,433.072906 159.499115,433.048218 
	C196.967712,432.977875 233.927109,432.932190 270.945007,432.946014 
	C271.003479,433.005493 271.119232,433.125610 271.119232,433.125610 
z"/>
<path fill="#FFF16B" opacity="1.000000" stroke="none" 
	d="
M1.000000,243.468658 
	C26.689154,243.000702 52.378307,243.001404 78.533791,243.000549 
	C79.000122,242.998993 78.994293,242.994217 78.996544,243.463531 
	C79.031769,254.621933 79.064743,265.311035 79.021973,276.346985 
	C76.231598,281.420624 73.487778,286.130920 70.808029,290.877411 
	C64.072113,302.808441 57.365124,314.755829 50.394814,326.921967 
	C44.770584,336.399475 39.398083,345.651672 34.025574,354.903870 
	C23.329485,354.935913 12.633400,354.967957 1.468657,355.000000 
	C1.000000,317.979095 1.000000,280.958221 1.000000,243.468658 
z"/>
<path fill="#000000" opacity="1.000000" stroke="none" 
	d="
M494.469360,513.000000 
	C495.096222,511.993927 496.024414,510.570435 497.316315,510.050537 
	C504.877899,507.007355 508.149292,500.087250 512.643127,493.965729 
	C513.000000,500.259247 513.000000,506.518463 513.000000,513.000000 
	C506.981384,513.000000 500.960083,513.000000 494.469360,513.000000 
z"/>
<path fill="#000000" opacity="1.000000" stroke="none" 
	d="
M19.530624,1.000000 
	C19.548889,1.702054 19.258684,2.770973 18.622112,3.050170 
	C11.161904,6.322161 5.910236,11.666862 2.899795,19.244877 
	C2.684407,19.787064 2.030750,20.155146 1.290437,20.302090 
	C1.000000,13.740766 1.000000,7.481532 1.000000,1.000000 
	C7.018606,1.000000 13.039927,1.000000 19.530624,1.000000 
z"/>
<path fill="#000000" opacity="1.000000" stroke="none" 
	d="
M1.000006,506.497894 
	C3.533604,508.144714 6.067194,510.289459 8.300392,512.717102 
	C5.752364,513.000000 3.504728,513.000000 1.000000,513.000000 
	C1.000000,511.001862 1.000000,508.998840 1.000006,506.497894 
z"/>
<path fill="#015EDF" opacity="1.000000" stroke="none" 
	d="
M453.152832,216.979370 
	C457.459869,224.015381 461.884216,230.982880 466.042236,238.105865 
	C470.553955,245.834808 475.159515,253.539856 479.114349,261.556152 
	C486.139557,275.795929 481.715607,293.617828 467.511200,301.839508 
	C441.735321,316.758911 415.909393,331.591827 390.100006,346.453278 
	C389.686493,346.691406 389.217590,346.833374 388.123657,346.856506 
	C381.289551,336.071564 375.135773,325.433136 368.915466,314.833740 
	C361.857758,302.807556 354.740448,290.816315 347.682648,278.511200 
	C347.742920,277.813202 347.769592,277.413879 348.166901,276.997437 
	C356.792328,272.357788 365.094574,267.817596 373.293274,263.097504 
	C399.933533,247.760239 426.535889,232.357132 453.152832,216.979370 
z"/>
<path fill="#A3264A" opacity="1.000000" stroke="none" 
	d="
M296.130280,58.945263 
	C310.875336,67.531677 325.847504,75.755318 340.301788,84.806107 
	C354.873688,93.930542 357.371216,111.729782 349.321045,126.048073 
	C338.944092,144.504974 328.151703,162.728836 317.485992,181.022598 
	C313.112427,188.524155 308.602478,195.946182 303.644653,203.656693 
	C288.622375,195.630234 274.135803,187.305786 259.587769,179.090103 
	C251.109970,174.302444 242.533829,169.688904 233.992401,164.759445 
	C233.982880,164.521866 233.960068,164.046875 234.123016,163.742844 
	C237.350967,158.303101 240.484390,153.206802 243.469376,148.024979 
	C257.821960,123.109421 272.076080,98.136894 286.510559,73.268982 
	C289.391602,68.305466 292.907257,63.710281 296.130280,58.945263 
z"/>
<path fill="#BD2E4A" opacity="1.000000" stroke="none" 
	d="
M295.955383,58.633957 
	C292.907257,63.710281 289.391602,68.305466 286.510559,73.268982 
	C272.076080,98.136894 257.821960,123.109421 243.469376,148.024979 
	C240.484390,153.206802 237.350967,158.303101 233.773529,163.685516 
	C219.338974,155.954178 205.447922,147.921280 191.483215,140.018509 
	C183.007629,135.222107 174.418152,130.626907 165.879852,125.941315 
	C170.553711,117.496567 175.126160,108.993721 179.923035,100.619438 
	C189.209152,84.407906 198.998779,68.471825 207.851944,52.029713 
	C213.960785,40.684357 221.650589,32.143112 235.060623,30.474714 
	C242.876602,29.502295 249.805542,32.030594 256.486847,35.925335 
	C269.511047,43.517517 282.674622,50.870567 295.955383,58.633957 
z"/>
<path fill="#4793FF" opacity="1.000000" stroke="none" 
	d="
M453.081635,216.614761 
	C426.535889,232.357132 399.933533,247.760239 373.293274,263.097504 
	C365.094574,267.817596 356.792328,272.357788 347.845825,276.934296 
	C346.624084,276.272583 345.980255,275.722656 345.580750,275.031494 
	C337.854034,261.663605 330.093903,248.314392 322.474823,234.885208 
	C317.813690,226.669632 313.378113,218.326080 308.841248,210.040024 
	C314.323273,206.678864 319.747314,203.218475 325.297638,199.974182 
	C346.282227,187.708221 367.073822,175.083572 388.402863,163.445770 
	C401.917175,156.071960 418.384735,159.029556 427.604523,172.648804 
	C437.012848,186.546432 444.616638,201.665726 453.081635,216.614761 
z"/>
<path fill="#8BB9FF" opacity="1.000000" stroke="none" 
	d="
M308.488831,210.047058 
	C313.378113,218.326080 317.813690,226.669632 322.474823,234.885208 
	C330.093903,248.314392 337.854034,261.663605 345.580750,275.031494 
	C345.980255,275.722656 346.624084,276.272583 347.475220,276.951416 
	C347.769592,277.413879 347.742920,277.813202 347.337891,278.549896 
	C345.588348,279.455811 344.133148,279.878723 342.858368,280.614349 
	C318.298767,294.786377 293.788513,309.044098 269.201752,323.168762 
	C260.889832,327.943878 252.395416,332.401276 243.677811,336.858337 
	C242.609818,335.852020 241.676788,335.090485 241.112900,334.115448 
	C233.331879,320.661224 225.667923,307.138885 217.833359,293.716125 
	C213.353119,286.040253 208.615479,278.514648 204.204483,270.656677 
	C231.468460,254.802139 258.548920,239.259232 285.547394,223.575150 
	C289.907349,221.042328 293.902527,217.881546 298.066345,215.011032 
	C301.423035,213.358704 304.779755,211.706390 308.488831,210.047058 
z"/>
<path fill="#DC455B" opacity="1.000000" stroke="none" 
	d="
M165.576996,126.105858 
	C174.418152,130.626907 183.007629,135.222107 191.483215,140.018509 
	C205.447922,147.921280 219.338974,155.954178 233.610565,163.989563 
	C233.960068,164.046875 233.982880,164.521866 233.727264,164.969513 
	C223.002014,183.548874 212.555450,201.693970 202.055878,219.808319 
	C192.724091,235.907959 183.333466,251.973511 173.622162,267.992065 
	C157.570679,258.964966 141.822174,250.075134 126.181778,240.999023 
	C119.613541,237.187500 113.274033,232.981827 106.929893,228.615570 
	C121.392014,203.397568 135.807510,178.549530 150.077835,153.618393 
	C153.353775,147.895111 156.130600,141.886139 159.137146,136.008652 
	C161.182800,132.762573 163.228455,129.516479 165.576996,126.105858 
z"/>
<path fill="#7873D5" opacity="1.000000" stroke="none" 
	d="
M390.498108,355.092346 
	C390.959564,380.762756 390.962341,406.365662 390.921387,432.423157 
	C351.261932,432.931030 311.646149,432.984283 271.574829,433.081543 
	C271.119232,433.125610 271.003479,433.005493 270.985840,432.489502 
	C270.961182,406.349731 270.954163,380.725952 271.418152,355.070923 
	C306.612976,355.000488 341.336761,354.961304 376.060577,354.922119 
	C380.720184,354.956360 385.379822,354.990601 390.498108,355.092346 
z"/>
<path fill="#4793FF" opacity="1.000000" stroke="none" 
	d="
M376.174927,354.593018 
	C341.336761,354.961304 306.612976,355.000488 270.955688,355.033386 
	C264.379791,354.987213 258.737366,354.947296 253.015244,354.568604 
	C249.882187,349.142975 246.828812,344.056091 243.807861,338.641357 
	C243.888321,337.876953 243.936356,337.440399 243.984375,337.003876 
	C252.395416,332.401276 260.889832,327.943878 269.201752,323.168762 
	C293.788513,309.044098 318.298767,294.786377 342.858368,280.614349 
	C344.133148,279.878723 345.588348,279.455811 347.304321,278.848572 
	C354.740448,290.816315 361.857758,302.807556 368.915466,314.833740 
	C375.135773,325.433136 381.289551,336.071564 387.758484,346.883240 
	C384.125946,349.470459 380.207611,351.867218 376.174927,354.593018 
z"/>
<path fill="#BD2E4A" opacity="1.000000" stroke="none" 
	d="
M173.968811,268.054108 
	C183.333466,251.973511 192.724091,235.907959 202.055878,219.808319 
	C212.555450,201.693970 223.002014,183.548874 233.736786,165.207092 
	C242.533829,169.688904 251.109970,174.302444 259.587769,179.090103 
	C274.135803,187.305786 288.622375,195.630234 303.475647,203.966766 
	C301.956818,207.460617 300.097168,210.896713 298.151917,214.671921 
	C293.902527,217.881546 289.907349,221.042328 285.547394,223.575150 
	C258.548920,239.259232 231.468460,254.802139 203.843079,270.709229 
	C198.878036,273.424347 194.485138,275.822205 189.901733,277.923950 
	C184.481308,274.743347 179.251404,271.858826 174.010910,268.744110 
	C174.000336,268.513916 173.968811,268.054108 173.968811,268.054108 
z"/>
<path fill="#FF8E00" opacity="1.000000" stroke="none" 
	d="
M159.078125,135.545227 
	C156.130600,141.886139 153.353775,147.895111 150.077835,153.618393 
	C135.807510,178.549530 121.392014,203.397568 106.660072,228.805359 
	C103.505638,233.902359 100.720375,238.469788 97.472778,243.023407 
	C91.005058,243.004456 84.999680,242.999329 78.994293,242.994202 
	C78.994293,242.994217 79.000122,242.998993 79.002792,243.002533 
	C79.002007,203.316620 78.998558,163.627182 78.988220,123.468994 
	C105.293587,123.001175 131.605850,123.002083 158.375916,123.005005 
	C158.895523,127.031952 158.957336,131.056885 159.078125,135.545227 
z"/>
<path fill="#05313E" opacity="1.000000" stroke="none" 
	d="
M95.071533,433.035645 
	C93.981316,438.438416 92.040031,443.092682 86.659134,446.182343 
	C75.964844,452.322723 64.250542,442.787781 64.928986,433.368774 
	C64.872116,432.960266 64.971016,433.112122 65.516930,433.067444 
	C75.657639,433.035828 85.252434,433.048920 94.847229,433.062042 
	C94.847229,433.062042 95.020676,433.109863 95.071533,433.035645 
z"/>
<path fill="#B7B4E7" opacity="1.000000" stroke="none" 
	d="
M253.094925,354.907410 
	C258.737366,354.947296 264.379791,354.987213 270.484680,355.064636 
	C270.954163,380.725952 270.961182,406.349731 270.927368,432.429993 
	C233.927109,432.932190 196.967712,432.977875 159.546936,433.048340 
	C159.052155,407.368347 159.018768,381.663605 159.444977,355.483276 
	C178.274719,354.997833 196.644867,354.987915 215.482056,354.984436 
	C228.331039,354.963074 240.712982,354.935242 253.094925,354.907410 
z"/>
<path fill="#B1D5F1" opacity="1.000000" stroke="none" 
	d="
M215.015015,354.977966 
	C196.644867,354.987915 178.274719,354.997833 159.431946,355.016357 
	C147.317825,354.999359 135.676331,354.973785 123.497482,354.579041 
	C122.105965,352.418396 121.334869,350.581421 120.383224,348.843292 
	C116.260040,341.312683 112.084106,333.810944 108.230881,326.094788 
	C125.012794,316.254791 141.491180,306.618774 158.238770,296.928955 
	C158.699097,296.591125 158.890244,296.307068 159.052216,296.055420 
	C159.023056,296.087860 159.090149,296.143646 159.445312,296.108002 
	C169.897720,290.121582 179.994980,284.170837 190.092224,278.220093 
	C194.485138,275.822205 198.878036,273.424347 203.632324,270.973938 
	C208.615479,278.514648 213.353119,286.040253 217.833359,293.716125 
	C225.667923,307.138885 233.331879,320.661224 241.112900,334.115448 
	C241.676788,335.090485 242.609818,335.852020 243.677795,336.858337 
	C243.936356,337.440399 243.888321,337.876953 243.452835,338.647217 
	C233.715256,344.313293 224.365128,349.645630 215.015015,354.977966 
z"/>
<path fill="#E2DFF3" opacity="1.000000" stroke="none" 
	d="
M107.927353,326.298706 
	C112.084106,333.810944 116.260040,341.312683 120.383224,348.843292 
	C121.334869,350.581421 122.105965,352.418396 123.036438,354.555603 
	C103.414505,354.932709 83.716263,354.969330 64.018021,354.976624 
	C63.214252,354.976929 62.410378,354.700806 61.460403,353.968079 
	C62.854153,352.424561 64.426590,351.514587 65.927673,350.499115 
	C69.977318,347.759521 73.996574,344.975037 78.399139,342.127197 
	C80.879333,341.151093 83.090469,340.439148 85.079109,339.328735 
	C92.733810,335.054565 100.317307,330.652863 107.927353,326.298706 
z"/>
<path fill="#BFBCDB" opacity="1.000000" stroke="none" 
	d="
M78.027893,342.208344 
	C73.996574,344.975037 69.977318,347.759521 65.927673,350.499115 
	C64.426590,351.514587 62.854153,352.424561 61.154823,353.684021 
	C52.314869,354.312958 43.634346,354.640503 34.489700,354.935974 
	C39.398083,345.651672 44.770584,336.399475 50.744499,327.099823 
	C60.239906,332.104370 69.133896,337.156342 78.027893,342.208344 
z"/>
<path fill="#0B627E" opacity="1.000000" stroke="none" 
	d="
M94.896835,432.674805 
	C85.252434,433.048920 75.657639,433.035828 65.603912,433.042053 
	C64.894035,424.999817 69.478600,419.651215 78.000374,418.063477 
	C83.671974,417.006775 91.951950,422.151917 93.925568,428.025665 
	C94.389008,429.404938 94.612541,430.864807 94.896835,432.674805 
z"/>
<path fill="#E27A4E" opacity="1.000000" stroke="none" 
	d="
M78.399139,342.127197 
	C69.133896,337.156342 60.239906,332.104370 50.996223,326.874542 
	C57.365124,314.755829 64.072113,302.808441 70.808029,290.877411 
	C73.487778,286.130920 76.231598,281.420624 79.274277,276.132385 
	C85.713249,264.726318 91.824181,253.881775 97.935112,243.037216 
	C100.720375,238.469788 103.505638,233.902359 106.560715,229.145142 
	C113.274033,232.981827 119.613541,237.187500 126.181778,240.999023 
	C141.822174,250.075134 157.570679,258.964966 173.622162,267.992065 
	C173.968811,268.054108 174.000336,268.513916 173.741425,268.953949 
	C171.512817,272.626740 169.375961,275.771179 167.610855,279.112030 
	C164.646103,284.723450 161.917892,290.459839 159.090149,296.143646 
	C159.090149,296.143646 159.023056,296.087860 158.818451,296.152191 
	C158.399094,296.471924 158.184326,296.727325 157.969574,296.982727 
	C141.491180,306.618774 125.012794,316.254791 108.230873,326.094788 
	C100.317307,330.652863 92.733810,335.054565 85.079109,339.328735 
	C83.090469,340.439148 80.879333,341.151093 78.399139,342.127197 
z"/>
<path fill="#FFD222" opacity="1.000000" stroke="none" 
	d="
M97.472778,243.023407 
	C91.824181,253.881775 85.713249,264.726318 79.350014,275.785522 
	C79.064743,265.311035 79.031769,254.621933 78.996544,243.463516 
	C84.999680,242.999329 91.005058,243.004456 97.472778,243.023407 
z"/>
<path fill="#8BB9FF" opacity="1.000000" stroke="none" 
	d="
M215.482056,354.984436 
	C224.365128,349.645630 233.715256,344.313293 243.420410,338.975098 
	C246.828812,344.056091 249.882187,349.142975 253.015244,354.568604 
	C240.712982,354.935242 228.331039,354.963074 215.482056,354.984436 
z"/>
<path fill="#DB475C" opacity="1.000000" stroke="none" 
	d="
M159.445312,296.108002 
	C161.917892,290.459839 164.646103,284.723450 167.610855,279.112030 
	C169.375961,275.771179 171.512817,272.626740 173.751999,269.184143 
	C179.251404,271.858826 184.481308,274.743347 189.901733,277.923981 
	C179.994980,284.170837 169.897720,290.121582 159.445312,296.108002 
z"/>
<path fill="#DB475C" opacity="1.000000" stroke="none" 
	d="
M158.238754,296.928955 
	C158.184326,296.727325 158.399094,296.471924 158.847626,296.119751 
	C158.890244,296.307068 158.699097,296.591125 158.238754,296.928955 
z"/>
</svg>