<svg version="1.1" id="Layer_1" xmlns="http://www.w3.org/2000/svg" xmlns:xlink="http://www.w3.org/1999/xlink" x="0px" y="0px"
	 width="100%" viewBox="0 0 128 128" enable-background="new 0 0 128 128" xml:space="preserve">
<path fill="transparent" opacity="100" stroke="none" 
	d="
M72.000000,129.000000 
	C48.000000,129.000000 24.500000,129.000000 1.000000,129.000000 
	C1.000000,86.333336 1.000000,43.666668 1.000000,1.000000 
	C43.666668,1.000000 86.333336,1.000000 129.000000,1.000000 
	C129.000000,43.666668 129.000000,86.333336 129.000000,129.000000 
	C110.166664,129.000000 91.333336,129.000000 72.000000,129.000000 
M65.795044,114.963493 
	C74.787407,121.394058 84.893311,122.621956 95.265587,120.174332 
	C116.755043,115.103294 126.233147,93.558762 118.832085,73.052559 
	C115.349686,63.403820 108.052559,56.912773 98.361237,53.131287 
	C101.872665,43.332687 99.984634,34.018383 94.854118,25.512383 
	C87.779861,13.783830 77.147301,8.597530 63.241653,8.850492 
	C49.943741,9.092400 36.583576,18.387089 31.981983,31.557091 
	C29.412241,38.911819 29.686064,46.338593 30.263142,53.992168 
	C14.772187,61.075867 8.161417,73.116295 8.870285,90.097473 
	C9.510031,105.422821 24.579561,120.605499 39.920879,121.138481 
	C49.098427,121.457321 57.340748,119.523949 65.795044,114.963493 
z"/>
<path fill="#FD3730" opacity="1.000000" stroke="none" 
	d="
M30.993038,53.837570 
	C29.686064,46.338593 29.412241,38.911819 31.981983,31.557091 
	C36.583576,18.387089 49.943741,9.092400 63.241653,8.850492 
	C77.147301,8.597530 87.779861,13.783830 94.854118,25.512383 
	C99.984634,34.018383 101.872665,43.332687 98.014992,53.591476 
	C97.668747,54.051666 97.256981,54.174358 96.998199,53.878632 
	C85.587219,51.904442 74.705780,51.799545 64.759415,58.901299 
	C63.156574,57.991261 61.927757,57.116394 60.597244,56.442230 
	C51.694427,51.931198 42.575996,49.825497 32.609077,54.116608 
	C31.853039,53.997501 31.423038,53.917534 30.993038,53.837570 
z"/>
<path fill="#F9C100" opacity="1.000000" stroke="none" 
	d="
M30.628090,53.914871 
	C31.423038,53.917534 31.853039,53.997501 32.625904,54.479439 
	C36.320625,65.365715 43.719730,71.860489 53.724655,75.967072 
	C53.800159,76.073112 54.013668,76.216385 53.824165,76.603149 
	C49.844669,91.453659 53.610733,103.530495 65.052261,113.452454 
	C65.050621,114.092552 65.063042,114.458427 65.075462,114.824310 
	C57.340748,119.523949 49.098427,121.457321 39.920879,121.138481 
	C24.579561,120.605499 9.510031,105.422821 8.870285,90.097473 
	C8.161417,73.116295 14.772187,61.075867 30.628090,53.914871 
z"/>
<path fill="#009AE0" opacity="1.000000" stroke="none" 
	d="
M65.435257,114.893906 
	C65.063042,114.458427 65.050621,114.092552 65.362160,113.305695 
	C67.453644,110.948997 69.396187,109.144142 70.958549,107.054985 
	C77.915329,97.752586 79.158119,87.315468 77.034142,75.953461 
	C86.867241,71.234062 94.413109,64.887444 97.256981,54.174358 
	C97.256981,54.174358 97.668747,54.051666 97.855385,53.945282 
	C108.052559,56.912773 115.349686,63.403820 118.832085,73.052559 
	C126.233147,93.558762 116.755043,115.103294 95.265587,120.174332 
	C84.893311,122.621956 74.787407,121.394058 65.435257,114.893906 
z"/>
<path fill="#F87701" opacity="1.000000" stroke="none" 
	d="
M53.649155,75.861031 
	C43.719730,71.860489 36.320625,65.365715 32.951942,54.518578 
	C42.575996,49.825497 51.694427,51.931198 60.597244,56.442230 
	C61.927757,57.116394 63.156574,57.991261 64.739876,59.132889 
	C65.047310,59.492496 65.081810,59.956303 64.790169,60.130882 
	C60.882069,65.490654 57.265610,70.675842 53.649155,75.861031 
z"/>
<path fill="#A555B8" opacity="1.000000" stroke="none" 
	d="
M65.081810,59.956303 
	C65.081810,59.956303 65.047310,59.492496 65.066849,59.260910 
	C74.705780,51.799545 85.587219,51.904442 96.998199,53.878632 
	C94.413109,64.887444 86.867241,71.234062 76.824875,75.889572 
	C76.369034,76.093491 75.967308,75.915413 75.927094,75.562408 
	C72.285187,70.125031 68.683495,65.040665 65.081810,59.956303 
z"/>
<path fill="#03B156" opacity="1.000000" stroke="none" 
	d="
M75.967308,75.915413 
	C75.967308,75.915413 76.369034,76.093491 76.578300,76.157387 
	C79.158119,87.315468 77.915329,97.752586 70.958549,107.054985 
	C69.396187,109.144142 67.453644,110.948997 65.376221,113.031487 
	C53.610733,103.530495 49.844669,91.453659 54.241158,76.734642 
	C61.945236,78.452019 69.002037,78.897743 75.967308,75.915413 
z"/>
<path fill="#C5552B" opacity="1.000000" stroke="none" 
	d="
M75.927094,75.562408 
	C69.002037,78.897743 61.945236,78.452019 54.430664,76.347870 
	C54.013668,76.216385 53.800159,76.073112 53.724655,75.967072 
	C57.265610,70.675842 60.882069,65.490654 64.790169,60.130882 
	C68.683495,65.040665 72.285187,70.125031 75.927094,75.562408 
z"/>
</svg>